<svg width="17" height="17" viewBox="0 0 17 17" fill="none" xmlns="http://www.w3.org/2000/svg">
<g id="heart 1" clip-path="url(#clip0_14_462)">
<path id="Vector" d="M14.1617 3.74008C13.8212 3.39941 13.4169 3.12918 12.9719 2.9448C12.527 2.76043 12.05 2.66553 11.5684 2.66553C11.0867 2.66553 10.6098 2.76043 10.1648 2.9448C9.71983 3.12918 9.31554 3.39941 8.97504 3.74008L8.26837 4.44674L7.5617 3.74008C6.87391 3.05228 5.94106 2.66588 4.96837 2.66588C3.99568 2.66588 3.06283 3.05228 2.37504 3.74008C1.68724 4.42787 1.30084 5.36072 1.30084 6.33341C1.30084 7.3061 1.68724 8.23895 2.37504 8.92674L3.0817 9.63341L8.26837 14.8201L13.455 9.63341L14.1617 8.92674C14.5024 8.58624 14.7726 8.18195 14.957 7.73698C15.1414 7.29201 15.2363 6.81507 15.2363 6.33341C15.2363 5.85175 15.1414 5.37481 14.957 4.92984C14.7726 4.48487 14.5024 4.08058 14.1617 3.74008Z" stroke="#030713" stroke-linecap="round" stroke-linejoin="round"/>
</g>
<defs>
<clipPath id="clip0_14_462">
<rect width="16" height="16" fill="white" transform="translate(0.268372 0.666504)"/>
</clipPath>
</defs>
</svg>
