<svg width="96" height="96" viewBox="0 0 96 96" fill="none" xmlns="http://www.w3.org/2000/svg">
<g id="Logo">
<path id="Union" fill-rule="evenodd" clip-rule="evenodd" d="M48.7215 70.7695C44.4511 70.6781 38.9715 70.6324 32.2827 70.6324C17.9811 70.6324 7.22021 70.7491 0 70.9826V68.6477C2.36045 68.492 4.06137 68.1807 5.10274 67.7137C6.14412 67.2467 6.83837 66.3516 7.1855 65.0285C7.60205 63.7053 7.81032 61.565 7.81032 58.6074V12.3753C7.81032 9.41765 7.60205 7.27728 7.1855 5.95413C6.83837 4.631 6.10941 3.73593 4.9986 3.26894C3.95723 2.80195 2.29103 2.49062 0 2.33496V0C7.22021 0.233497 17.9811 0.350246 32.2827 0.350246C42.0022 0.350246 48.91 0.233497 53.006 0C52.5201 5.21473 52.2771 9.88464 52.2771 14.0097C52.2771 17.0452 52.3812 19.458 52.5895 21.2481H50.1943C49.153 14.5546 47.3479 9.80681 44.7792 7.00486C42.2104 4.12509 38.6698 2.6852 34.1571 2.6852H30.304C28.499 2.6852 27.1452 2.87978 26.2427 3.26894C25.3402 3.58026 24.6806 4.28075 24.2641 5.3704C23.9169 6.38221 23.7434 8.01668 23.7434 10.2738V34.0903H24.9186C28.1122 34.0903 30.5074 32.845 32.1041 30.3544C33.7703 27.786 34.8811 24.8284 35.4365 21.4816H37.8317C37.6234 24.1279 37.5193 27.1633 37.5193 30.5879V35.2578C37.5193 38.7603 37.7276 43.3523 38.1441 49.0341H35.749C35.263 45.376 34.1522 42.3794 32.4166 40.0445C30.7504 37.6317 28.251 36.4253 24.9186 36.4253H23.7434V60.7088C23.7434 62.966 23.9169 64.6393 24.2641 65.729C24.6806 66.7408 25.3402 67.4413 26.2427 67.8304C27.1452 68.1418 28.499 68.2974 30.304 68.2974H34.782C39.7111 68.2974 43.5642 66.7019 46.3412 63.5108C47.2168 62.5292 48.0102 61.3415 48.7215 59.9476V45.7317C48.7215 42.7741 48.5132 40.6337 48.0967 39.3106C47.7496 37.9874 47.0206 37.0924 45.9098 36.6254C44.8684 36.1584 43.2022 35.8471 40.9112 35.6914V33.3564C44.4519 33.5899 49.9365 33.7067 57.3649 33.7067C63.8909 33.7067 68.9242 33.5899 72.4649 33.3564V35.6914C70.1044 35.8471 68.4035 36.1584 67.3621 36.6254C66.3208 37.0924 65.5918 37.9874 65.1753 39.3106C64.8281 40.6337 64.6546 42.7741 64.6546 45.7317V85.0257C64.6546 87.4384 64.8281 89.2286 65.1753 90.3961C65.5918 91.5635 66.2513 92.3419 67.1539 92.731C68.0564 93.1202 69.4102 93.3148 71.2152 93.3148H75.2766C79.8587 93.3148 83.7117 91.4857 86.8359 87.8276C89.96 84.0917 92.0775 78.0986 93.1883 69.8485H95.5834C95.3752 72.4169 95.271 75.608 95.271 79.4218C95.271 84.2473 95.514 89.7734 96 96C91.4874 95.7665 83.8853 95.6497 73.1939 95.6497C58.8923 95.6497 48.1314 95.7665 40.9112 96V93.665C43.2716 93.5093 44.9726 93.198 46.0139 92.731C47.0553 92.264 47.7496 91.3689 48.0967 90.0458C48.5132 88.7227 48.7215 86.5823 48.7215 83.6247V70.7695Z" fill="#030713"/>
</g>
</svg>
